<?xml version="1.0" encoding="utf-8"?>
<!-- Generator: Adobe Illustrator 18.1.1, SVG Export Plug-In . SVG Version: 6.00 Build 0)  -->
<svg version="1.1" id="Layer_1" xmlns="http://www.w3.org/2000/svg" xmlns:xlink="http://www.w3.org/1999/xlink" x="0px" y="0px"
	 viewBox="0 0 612 573.3" enable-background="new 0 0 612 573.3" xml:space="preserve">
<path id="document-file-txt" fill="#F26768" d="M395.1,473.8v39.6c0,21.7-17.8,39.6-39.6,39.6H58.8c-21.7,0-39.6-17.8-39.6-39.6
	V58.5c0-21.7,17.8-39.6,39.6-39.6h197.8v118.7c0,21.7,17.8,39.6,39.6,39.6H395v39.6H217c-33.6,0-59.3,25.7-59.3,59.3v138.4
	c0,33.6,25.7,59.3,59.3,59.3L395.1,473.8L395.1,473.8z M276.3,18.9v118.7c0,11.9,9.9,19.7,19.7,19.7H395L276.3,18.9L276.3,18.9z
	 M217,236.4c-21.7,0-39.6,17.8-39.6,39.6v138.4c0,21.7,17.8,39.6,39.6,39.6h336.2c21.7,0,39.6-17.8,39.6-39.6V276
	c0-21.7-17.8-39.6-39.6-39.6L217,236.4L217,236.4z"/>
<text transform="matrix(0.8689 0 0 1 206.1175 422.221)" fill="#FFFFFF" font-family="'ArialMT'" font-size="200.3453">CSV</text>
</svg>
